<?xml version="1.0" encoding="UTF-8"?>
<!DOCTYPE svg PUBLIC "-//W3C//DTD SVG 1.1//EN" "http://www.w3.org/Graphics/SVG/1.1/DTD/svg11.dtd">
<!-- Creator: CorelDRAW -->
<svg xmlns="http://www.w3.org/2000/svg" xml:space="preserve" width="7.73466in" height="7.05321in" version="1.1" style="shape-rendering:geometricPrecision; text-rendering:geometricPrecision; image-rendering:optimizeQuality; fill-rule:evenodd; clip-rule:evenodd"
viewBox="0 0 7663.43 6988.25"
 xmlns:xlink="http://www.w3.org/1999/xlink"
 xmlns:xodm="http://www.corel.com/coreldraw/odm/2003">
 <defs>
  <style type="text/css">
   <![CDATA[
    .fil2 {fill:#028F80}
    .fil0 {fill:#19191A}
    .fil1 {fill:#F6FAFD}
   ]]>
  </style>
 </defs>
 <g id="Layer_x0020_1">
  <metadata id="CorelCorpID_0Corel-Layer"/>
  <path class="fil0" d="M479.27 392.16c-118.13,17.39 -221.02,-33.91 -355.12,63.39 -91.98,66.73 -121.42,152.84 -121.4,298.85l0.05 4197.74c0,134.32 -6.64,286.24 0.5,418.38 6.6,122.05 80.03,209.75 166.22,254.28 94.35,48.74 263.32,32.88 386.25,32.88l1678.07 -0.13c247.38,-0.05 341.64,-27.44 479.01,151.87 28.64,37.38 68.06,75.41 105.06,104.03 218.55,169.05 434.89,130.72 706.37,130.72 123.23,0 294.64,10.22 407.06,-16.17 90.9,-21.33 270.07,-74.02 181.85,-190.57 -61.23,-80.89 -115.56,-158.52 -173.55,-244.83 -102.23,-152.17 -221.23,-359.48 -266.85,-574.53 -41.06,-193.52 -27.66,-598.43 -27.66,-815.71l-0.16 -3356.15c0.03,-204.45 -41.04,-418.32 120.46,-508.47 61.51,-34.34 103.33,-31.39 182.2,-31.35 559.36,0.3 1118.72,0.07 1678.08,0.07 88.73,0 345.24,-10.73 412.82,5.03 101.47,23.66 186.2,109.46 188.68,228.49 5.78,278.09 -0.03,562.93 0.02,841.79l-0.07 1887.22c-0.41,94 20.28,85.72 93,115.97 119.19,49.58 163.86,95.91 241.54,177.23 57.79,60.49 145.6,-20.5 355.63,51.91 88.48,30.51 68.8,-60.7 68.8,-125.82l0.02 -2733.89c0.03,-78.19 1.97,-116.22 -27.12,-181.08 -106.82,-238.13 -363.77,-164.48 -450.92,-181.97 -27.75,-52.71 -13.28,-59.48 -71.09,-147.6 -89.64,-136.65 -248.26,-230.69 -428.67,-238.82 -142.97,-6.44 -299.41,-0.74 -443.85,-0.73l-1341.44 0c-125.94,0 -319.65,-10.71 -434.6,9.09 -184.31,31.76 -254.32,132.54 -294.78,154.56 -19.73,-14.15 -35.9,-32.49 -57.56,-49.45 -22.69,-17.78 -41.86,-30.56 -68.26,-44.8 -184.29,-99.44 -368.16,-69.32 -598.46,-69.32l-1336.34 -0.01c-147.12,0 -303,-4.97 -449.04,0.46 -208.73,7.76 -389.95,131.74 -472.39,307.95 -10.43,22.3 -20.58,59.08 -32.37,79.48z"/>
  <path class="fil1" d="M3343.74 4995.9c7.86,-298.02 0.28,-606.55 0.28,-905.75l-0.03 -3182.73c-0.09,-99.12 11.73,-365.02 -13.18,-438.55 -19.51,-57.6 -57.19,-98.27 -99.12,-125.89 -58.9,-38.8 -108.94,-36.41 -191.96,-36.41l-1820.89 0c-156.55,0 -294.8,-24.29 -388.07,69.91 -92.94,93.87 -69.03,227.31 -69.03,383.03l-0.14 3636.68c-0.05,143.56 -22.82,306.65 56.92,395.23 95.19,105.75 199.6,84.1 369.71,84.1l1366.94 0c269.34,0 467.81,-26.53 710.99,84.24 14.41,6.56 64.16,34.9 77.57,36.16z"/>
  <path class="fil2" d="M7034.7 4370.96c-3.89,-111.18 13.68,-219.79 -31.51,-311.39 -112.32,-227.67 -412.4,-235.79 -543.91,-43.82 -11.52,16.8 -21.64,34.31 -30.93,55.72 -8.3,19.14 -13.13,46.66 -21.78,64.71 -7.85,-109.31 14.96,-221.73 -31.32,-316.35 -107.43,-219.59 -405.94,-249.49 -550.82,-35.71 -15.97,23.56 -48.54,101.05 -47.55,124.51 -7.28,-93.11 -1.3,-614.98 -1.3,-751.87 0,-74.02 6.05,-182.56 -4.28,-250.42 -44.5,-292.17 -451.23,-358.26 -587.69,-95.01 -37,71.38 -37.03,122.74 -37.03,212.81l-0.07 1774.99c0,77.83 9.95,458.7 -2.29,503.26 -8.53,31.04 -50.24,41.2 -75.3,17.91l-188.58 -193.94c-123.19,-119.76 -376.41,-351.53 -589.06,-424.82 -149.32,-51.46 -305.53,-26.21 -336.28,120.33 -56.98,271.56 383.15,818.59 522.68,992.68 159.62,199.16 420.16,483.28 601.95,657.99 50.92,48.94 85.59,79.95 130.17,124.89 144.89,146.04 440.65,293.68 662.57,352.69 149.44,39.73 301.95,40.03 467.46,37.03 543.62,-9.88 1001.9,-325.84 1214.58,-810.81 129.23,-294.69 107.68,-552.07 107.68,-907.95l0 -754.88c0,-94.57 4.12,-146 -34.59,-221.85 -97.8,-191.66 -351.82,-228.32 -500.16,-82.11 -73.3,72.25 -66.21,116.2 -92.62,161.43z"/>
 </g>
</svg>
