<?xml version="1.0" encoding="UTF-8"?>
<!DOCTYPE svg PUBLIC "-//W3C//DTD SVG 1.1//EN" "http://www.w3.org/Graphics/SVG/1.1/DTD/svg11.dtd">
<!-- Creator: CorelDRAW -->
<svg xmlns="http://www.w3.org/2000/svg" xml:space="preserve" width="2.84366in" height="3.41912in" version="1.1" style="shape-rendering:geometricPrecision; text-rendering:geometricPrecision; image-rendering:optimizeQuality; fill-rule:evenodd; clip-rule:evenodd"
viewBox="0 0 1453.17 1747.25"
 xmlns:xlink="http://www.w3.org/1999/xlink"
 xmlns:xodm="http://www.corel.com/coreldraw/odm/2003">
 <defs>
  <style type="text/css">
   <![CDATA[
    .fil3 {fill:#373535}
    .fil1 {fill:#028F80}
    .fil0 {fill:#19191A}
    .fil2 {fill:#028F80;fill-rule:nonzero}
   ]]>
  </style>
 </defs>
 <g id="Layer_x0020_1">
  <metadata id="CorelCorpID_0Corel-Layer"/>
  <path class="fil0" d="M94.65 630.37c-23.33,3.43 -43.65,-6.7 -70.13,12.52 -18.17,13.18 -23.98,30.18 -23.97,59.02l0.01 828.95c0,26.52 -1.31,56.53 0.1,82.62 1.3,24.1 15.8,41.42 32.82,50.21 18.63,9.62 52,6.49 76.28,6.49l331.38 -0.03c48.85,-0.01 67.46,-5.42 94.59,29.99 5.66,7.38 13.44,14.89 20.75,20.54 4.52,3.49 9.03,6.53 13.55,9.19 8.77,7.01 23.72,11.14 33.49,13.43 4.44,1.04 9.35,1.79 14.55,2.33 22.35,2.79 45.88,1.14 71.97,0.89 25.89,0.25 49.27,1.87 71.47,-0.86 5.31,-0.54 10.32,-1.3 14.84,-2.36 9.78,-2.3 24.75,-6.43 33.52,-13.45 4.51,-2.65 9.02,-5.69 13.53,-9.17 7.31,-5.65 15.09,-13.16 20.75,-20.54 27.13,-35.41 45.74,-30 94.59,-29.99l331.38 0.03c24.28,0 57.64,3.13 76.28,-6.49 17.02,-8.79 31.52,-26.11 32.82,-50.21 1.41,-26.09 0.1,-56.1 0.1,-82.62l0 -269.38c1.28,-5.36 0.29,-13.19 0.29,-19.69l0 -282c-14.65,32.14 -60.66,60.2 -109.79,49.47 -11.79,21.72 -18.64,25.95 -40.09,32.29l-0 48.37 -0.27 0 0.01 331.15c0.01,28.35 4.51,60.56 -11.24,78.05 -18.8,20.88 -39.42,16.61 -73.01,16.61l-269.94 0c-53.19,0 -92.38,-5.24 -140.4,16.63 -1.89,0.86 -6.83,3.6 -10.73,5.43 -6.7,-40.09 -4.32,-114.25 -4.32,-155l-0.03 -662.76c0.01,-40.37 -8.11,-82.61 23.79,-100.41 12.15,-6.78 35.74,-6.2 51.31,-6.19l8.57 0.01 40.88 -60.05c-21.16,-0.37 -80.36,-0.58 -96.21,2.15 -36.4,6.27 -50.22,26.17 -58.21,30.52 -3.9,-2.79 -7.09,-6.42 -11.37,-9.76 -4.48,-3.51 -8.26,-6.04 -13.48,-8.85 -36.39,-19.64 -72.7,-13.69 -118.18,-13.69l-263.89 -0c-29.05,0 -59.84,-0.98 -88.67,0.09 -41.22,1.53 -77.01,26.02 -93.29,60.81 -2.06,4.4 -4.06,11.67 -6.39,15.69l0 0zm561.07 907.42c6.7,-40.09 4.32,-114.25 4.32,-155l0.01 -303.1 0.32 0 -0 -347.57c-0.02,-19.57 2.32,-72.08 -2.6,-86.6 -3.85,-11.37 -11.29,-19.41 -19.57,-24.86 -11.63,-7.66 -21.51,-7.19 -37.91,-7.19l-359.58 0c-30.91,0 -58.22,-4.8 -76.64,13.81 -18.35,18.54 -13.63,44.89 -13.63,75.64l-0.03 718.16c-0.01,28.35 -4.51,60.56 11.24,78.05 18.8,20.88 39.42,16.61 73.01,16.61l269.94 0c53.19,0 92.38,-5.24 140.4,16.63 1.89,0.86 6.83,3.6 10.73,5.43z"/>
  <path class="fil1" d="M1341.8 858.63c-0.69,19.69 2.42,38.93 -5.58,55.16 -19.9,40.33 -73.05,41.77 -96.35,7.76 -2.04,-2.98 -3.83,-6.08 -5.48,-9.87 -1.47,-3.39 -2.33,-8.26 -3.86,-11.46 -1.39,19.36 2.65,39.28 -5.55,56.04 -19.03,38.9 -71.91,44.2 -97.58,6.33 -2.83,-4.17 -8.6,-17.9 -8.42,-22.06 -1.29,16.5 -0.23,108.94 -0.23,133.19 0,13.11 1.07,32.34 -0.76,44.36 -7.88,51.76 -79.93,63.46 -104.11,16.83 -6.55,-12.64 -6.56,-21.74 -6.56,-37.7l-0.01 -314.43c0,-13.79 1.76,-81.26 -0.41,-89.15 -1.51,-5.5 -8.9,-7.3 -13.34,-3.17l-33.41 34.36c-21.82,21.22 -66.68,62.27 -104.35,75.26 -26.45,9.11 -54.12,4.64 -59.57,-21.32 -10.09,-48.1 67.87,-145.01 92.59,-175.85 28.28,-35.28 74.43,-85.61 106.63,-116.56 9.02,-8.67 15.16,-14.16 23.06,-22.12 25.67,-25.87 78.06,-52.02 117.37,-62.48 26.47,-7.04 53.49,-7.09 82.81,-6.56 96.3,1.75 177.48,57.72 215.15,143.63 22.89,52.2 19.07,97.8 19.07,160.84l0 133.72c0,16.75 0.73,25.86 -6.13,39.3 -17.33,33.95 -62.32,40.45 -88.6,14.55 -12.98,-12.8 -11.73,-20.58 -16.41,-28.6l-0 0z"/>
  <path class="fil2" d="M354.63 221.57c0,-0.04 -0.01,-0.11 -0.02,-0.16 -7.68,-49.03 -53.67,-82.57 -102.7,-74.89 -49.03,7.68 -82.57,53.67 -74.89,102.69 7.68,49.03 53.67,82.57 102.7,74.89 0.05,-0.01 0.12,-0.02 0.17,-0.03 48.89,-7.74 82.32,-53.58 74.75,-102.49l-0.01 -0.01zm-90.06 42.34c-2.07,-13.25 7,-25.69 20.26,-27.77 13.26,-2.08 25.7,6.99 27.77,20.26 2.08,13.26 -6.99,25.7 -20.26,27.78 -0.17,0.03 -0.34,0.06 -0.51,0.09 -13.3,2.08 -25.78,-6.96 -27.95,-20.25l0.68 -0.11z"/>
  <path class="fil2" d="M905.01 221.57c0,-0.04 -0.01,-0.11 -0.02,-0.16 -7.68,-49.03 -53.67,-82.57 -102.7,-74.89 -49.03,7.68 -82.57,53.67 -74.89,102.69 7.68,49.03 53.67,82.57 102.7,74.89 0.05,-0.01 0.12,-0.02 0.17,-0.03 48.89,-7.74 82.32,-53.58 74.75,-102.49l-0.01 -0.01zm-90.06 42.34c-2.07,-13.25 7,-25.69 20.26,-27.77 13.26,-2.08 25.7,6.99 27.77,20.26 2.08,13.26 -6.99,25.7 -20.26,27.78 -0.17,0.03 -0.34,0.06 -0.51,0.09 -13.3,2.08 -25.78,-6.96 -27.95,-20.25l0.68 -0.11z"/>
  <path class="fil3" d="M362.85 309c-25.27,25.24 -59.98,40.8 -98.51,40.81 -38.52,-0.01 -73.25,-15.57 -98.52,-40.81 -25.24,-25.27 -40.8,-59.98 -40.81,-98.52 0.01,-38.53 15.57,-73.25 40.81,-98.52 25.27,-25.24 59.98,-40.8 98.52,-40.81 38.52,0.01 73.25,15.57 98.51,40.81 25.24,25.27 40.8,59.98 40.81,98.52 -0.01,38.52 -15.56,73.25 -40.81,98.52zm-359.5 -132.26l53.22 0c16.17,-100.21 103,-176.72 207.77,-176.73 78.21,0.01 146.29,42.76 182.58,106.07 30.43,-12.73 64.01,-21.04 99.98,-21.04 27.98,-0.01 57.25,5.14 86.93,16.61 36.89,-60.83 103.54,-101.62 179.9,-101.63 104.75,0.01 191.6,76.53 207.76,176.73l53.11 0 0 67.63 -53.13 0c-16.22,100.14 -103.02,176.58 -207.74,176.6 -116.25,-0.01 -210.46,-94.23 -210.48,-210.48 0,-24.6 0.29,-30.2 2.66,-43.82 -23.75,-8.78 -37.02,-8.15 -59,-8.16 -29,0 -51.59,3.69 -75.96,16.84 2.79,14.7 3.88,12.32 3.88,35.14 -0.01,116.25 -94.23,210.47 -210.47,210.47 -104.72,-0.01 -191.53,-76.46 -207.75,-176.6l-53.25 0 0 -67.63zm912.6 132.26c-25.27,25.24 -59.98,40.8 -98.51,40.81 -38.52,-0.01 -73.25,-15.57 -98.52,-40.81 -25.24,-25.27 -40.8,-59.98 -40.81,-98.52 0.01,-38.53 15.57,-73.25 40.81,-98.52 25.27,-25.24 59.98,-40.8 98.52,-40.81 38.52,0.01 73.25,15.57 98.51,40.81 25.24,25.27 40.8,59.98 40.81,98.52 -0.01,38.52 -15.56,73.25 -40.81,98.52z"/>
 </g>
</svg>
